<svg xmlns="http://www.w3.org/2000/svg" viewBox="0 0 48 48"><defs><style>.cls-1{fill:#201602;}</style></defs><title>Asset 39ldpi</title><g id="Layer_2" data-name="Layer 2"><g id="layer_1-2" data-name="layer 1"><path class="cls-1" d="M40,48H8a1,1,0,0,1-1-1V7A1,1,0,0,1,8,6H40a1,1,0,0,1,1,1V47A1,1,0,0,1,40,48ZM9,46H39V8H9Z"/><path class="cls-1" d="M31,43H17a1,1,0,0,1-1-1,3,3,0,0,0-3-3,1,1,0,0,1-1-1V7a1,1,0,0,1,1-1H35a1,1,0,0,1,1,1V38a1,1,0,0,1-1,1,3,3,0,0,0-3,3A1,1,0,0,1,31,43ZM17.9,41H30.1A5,5,0,0,1,34,37.1V8H14V37.1A5,5,0,0,1,17.9,41Z"/><path class="cls-1" d="M47,14H40V12h6V2H2V12H8v2H1a1,1,0,0,1-1-1V1A1,1,0,0,1,1,0H47a1,1,0,0,1,1,1V13A1,1,0,0,1,47,14Z"/><path class="cls-1" d="M24,37a4,4,0,1,1,4-4A4,4,0,0,1,24,37Zm0-6a2,2,0,1,0,2,2A2,2,0,0,0,24,31Z"/><path class="cls-1" d="M24,13a4,4,0,0,1-4-4h2a2,2,0,0,0,4,0h2A4,4,0,0,1,24,13Z"/><path class="cls-1" d="M27,25V23a2,2,0,1,0-2-2,4,4,0,1,1-4-4v2a2,2,0,1,0,2,2,4,4,0,1,1,4,4Z"/><rect class="cls-1" x="30" y="20" width="3" height="2"/><rect class="cls-1" x="15" y="20" width="3" height="2"/><rect class="cls-1" x="5" y="6" width="38" height="2"/></g></g></svg>